<?xml version="1.0" encoding="UTF-8" standalone="no"?>
<!DOCTYPE svg PUBLIC "-//W3C//DTD SVG 1.1//EN"
 "http://www.w3.org/Graphics/SVG/1.1/DTD/svg11.dtd">
<!-- Generated by graphviz version 2.42.4 (0)
 -->
<!-- Pages: 1 -->
<svg width="436pt" height="2180pt"
 viewBox="3.60 3.60 432.80 2176.10" xmlns="http://www.w3.org/2000/svg" xmlns:xlink="http://www.w3.org/1999/xlink">
<g id="graph0" class="graph" transform="scale(1 1) rotate(0) translate(18 2161.7)">
<polygon fill="white" stroke="transparent" points="-14.4,14.4 -14.4,-2158.1 414.8,-2158.1 414.8,14.4 -14.4,14.4"/>
<text text-anchor="middle" x="200.2" y="-2125.3" font-family="Arial" font-size="18.00">Локальный граф для уровня 2 (ходит игрок 3)</text>
<!-- LEVEL_ROOT -->
<g id="node1" class="node">
<title>LEVEL_ROOT</title>
<text text-anchor="middle" x="31" y="-1036.41" font-family="Arial" font-size="10.00">Уровень 2</text>
</g>
<!-- v3 -->
<g id="node2" class="node">
<title>v3</title>
<ellipse fill="#d1fae5" stroke="black" stroke-width="2" cx="177.79" cy="-1923.91" rx="48.58" ry="48.58"/>
<text text-anchor="middle" x="177.79" y="-1932.41" font-family="Arial" font-size="10.00">v3</text>
<text text-anchor="middle" x="177.79" y="-1921.41" font-family="Arial" font-size="10.00">P3</text>
<text text-anchor="middle" x="177.79" y="-1910.41" font-family="Arial" font-size="10.00">(19, 19, &#45;12)</text>
</g>
<!-- LEVEL_ROOT&#45;&gt;v3 -->
<g id="edge1" class="edge">
<title>LEVEL_ROOT&#45;&gt;v3</title>
<path fill="none" stroke="#666666" d="M34.59,-1057.07C50.02,-1165.05 129,-1717.91 129,-1717.91 129,-1717.91 149.33,-1805.53 163.47,-1866.48"/>
<polygon fill="#666666" stroke="#666666" points="160.1,-1867.44 165.77,-1876.39 166.92,-1865.86 160.1,-1867.44"/>
</g>
<!-- v26 -->
<g id="node5" class="node">
<title>v26</title>
<ellipse fill="#d1fae5" stroke="black" stroke-width="2" cx="177.79" cy="-1650.91" rx="45.01" ry="45.01"/>
<text text-anchor="middle" x="177.79" y="-1659.41" font-family="Arial" font-size="10.00">v26</text>
<text text-anchor="middle" x="177.79" y="-1648.41" font-family="Arial" font-size="10.00">P3</text>
<text text-anchor="middle" x="177.79" y="-1637.41" font-family="Arial" font-size="10.00">(15, 19, &#45;5)</text>
</g>
<!-- LEVEL_ROOT&#45;&gt;v26 -->
<g id="edge4" class="edge">
<title>LEVEL_ROOT&#45;&gt;v26</title>
<path fill="none" stroke="#666666" d="M36.29,-1057.1C55.07,-1136.64 129,-1449.91 129,-1449.91 129,-1449.91 149.76,-1537.24 163.92,-1596.77"/>
<polygon fill="#666666" stroke="#666666" points="160.58,-1597.88 166.3,-1606.8 167.39,-1596.26 160.58,-1597.88"/>
</g>
<!-- v49 -->
<g id="node8" class="node">
<title>v49</title>
<ellipse fill="#d1fae5" stroke="black" stroke-width="2" cx="177.79" cy="-1382.91" rx="45.01" ry="45.01"/>
<text text-anchor="middle" x="177.79" y="-1391.41" font-family="Arial" font-size="10.00">v49</text>
<text text-anchor="middle" x="177.79" y="-1380.41" font-family="Arial" font-size="10.00">P3</text>
<text text-anchor="middle" x="177.79" y="-1369.41" font-family="Arial" font-size="10.00">(15, 9, &#45;22)</text>
</g>
<!-- LEVEL_ROOT&#45;&gt;v49 -->
<g id="edge7" class="edge">
<title>LEVEL_ROOT&#45;&gt;v49</title>
<path fill="none" stroke="#666666" d="M39.58,-1056.92C60.95,-1107.7 122.27,-1253.38 155.23,-1331.68"/>
<polygon fill="#666666" stroke="#666666" points="152.19,-1333.48 159.29,-1341.34 158.64,-1330.77 152.19,-1333.48"/>
</g>
<!-- v72 -->
<g id="node11" class="node">
<title>v72</title>
<ellipse fill="#d1fae5" stroke="black" stroke-width="2" cx="177.79" cy="-1126.91" rx="37.45" ry="37.45"/>
<text text-anchor="middle" x="177.79" y="-1135.41" font-family="Arial" font-size="10.00">v72</text>
<text text-anchor="middle" x="177.79" y="-1124.41" font-family="Arial" font-size="10.00">P3</text>
<text text-anchor="middle" x="177.79" y="-1113.41" font-family="Arial" font-size="10.00">(&#45;5, 0, 3)</text>
</g>
<!-- LEVEL_ROOT&#45;&gt;v72 -->
<g id="edge10" class="edge">
<title>LEVEL_ROOT&#45;&gt;v72</title>
<path fill="none" stroke="#666666" d="M61.65,-1056.93C83.29,-1070.09 112.87,-1088.06 136.63,-1102.51"/>
<polygon fill="#666666" stroke="#666666" points="135.06,-1105.65 145.43,-1107.85 138.7,-1099.66 135.06,-1105.65"/>
</g>
<!-- v96 -->
<g id="node14" class="node">
<title>v96</title>
<ellipse fill="#d1fae5" stroke="black" stroke-width="2" cx="177.79" cy="-993.91" rx="45.01" ry="45.01"/>
<text text-anchor="middle" x="177.79" y="-1002.41" font-family="Arial" font-size="10.00">v96</text>
<text text-anchor="middle" x="177.79" y="-991.41" font-family="Arial" font-size="10.00">P3</text>
<text text-anchor="middle" x="177.79" y="-980.41" font-family="Arial" font-size="10.00">(18, 7, &#45;13)</text>
</g>
<!-- LEVEL_ROOT&#45;&gt;v96 -->
<g id="edge13" class="edge">
<title>LEVEL_ROOT&#45;&gt;v96</title>
<path fill="none" stroke="#666666" d="M62,-1029.59C80.09,-1023.96 103.64,-1016.65 124.69,-1010.1"/>
<polygon fill="#666666" stroke="#666666" points="125.96,-1013.37 134.47,-1007.06 123.89,-1006.69 125.96,-1013.37"/>
</g>
<!-- v119 -->
<g id="node17" class="node">
<title>v119</title>
<ellipse fill="#d1fae5" stroke="black" stroke-width="2" cx="177.79" cy="-722.91" rx="43.27" ry="43.27"/>
<text text-anchor="middle" x="177.79" y="-731.41" font-family="Arial" font-size="10.00">v119</text>
<text text-anchor="middle" x="177.79" y="-720.41" font-family="Arial" font-size="10.00">P3</text>
<text text-anchor="middle" x="177.79" y="-709.41" font-family="Arial" font-size="10.00">(14, 2, 12)</text>
</g>
<!-- LEVEL_ROOT&#45;&gt;v119 -->
<g id="edge16" class="edge">
<title>LEVEL_ROOT&#45;&gt;v119</title>
<path fill="none" stroke="#666666" d="M40.41,-1020.56C62.39,-972.59 122.09,-842.29 154.74,-771.04"/>
<polygon fill="#666666" stroke="#666666" points="157.98,-772.36 158.97,-761.81 151.62,-769.44 157.98,-772.36"/>
</g>
<!-- v142 -->
<g id="node20" class="node">
<title>v142</title>
<ellipse fill="#d1fae5" stroke="black" stroke-width="2" cx="177.79" cy="-455.91" rx="43.27" ry="43.27"/>
<text text-anchor="middle" x="177.79" y="-464.41" font-family="Arial" font-size="10.00">v142</text>
<text text-anchor="middle" x="177.79" y="-453.41" font-family="Arial" font-size="10.00">P3</text>
<text text-anchor="middle" x="177.79" y="-442.41" font-family="Arial" font-size="10.00">(3, 14, 16)</text>
</g>
<!-- LEVEL_ROOT&#45;&gt;v142 -->
<g id="edge19" class="edge">
<title>LEVEL_ROOT&#45;&gt;v142</title>
<path fill="none" stroke="#666666" d="M36.49,-1020.82C55.9,-942.68 132.95,-632.43 163.86,-507.97"/>
<polygon fill="#666666" stroke="#666666" points="167.34,-508.47 166.36,-497.92 160.55,-506.78 167.34,-508.47"/>
</g>
<!-- v165 -->
<g id="node23" class="node">
<title>v165</title>
<ellipse fill="#d1fae5" stroke="black" stroke-width="2" cx="177.79" cy="-191.91" rx="46.84" ry="46.84"/>
<text text-anchor="middle" x="177.79" y="-200.41" font-family="Arial" font-size="10.00">v165</text>
<text text-anchor="middle" x="177.79" y="-189.41" font-family="Arial" font-size="10.00">P3</text>
<text text-anchor="middle" x="177.79" y="-178.41" font-family="Arial" font-size="10.00">(19, 18, 13)</text>
</g>
<!-- LEVEL_ROOT&#45;&gt;v165 -->
<g id="edge22" class="edge">
<title>LEVEL_ROOT&#45;&gt;v165</title>
<path fill="none" stroke="#666666" d="M34.7,-1020.9C50.36,-916.25 129,-390.91 129,-390.91 129,-390.91 149.42,-305.9 163.56,-247.01"/>
<polygon fill="#666666" stroke="#666666" points="167.01,-247.61 165.95,-237.07 160.21,-245.97 167.01,-247.61"/>
</g>
<!-- v4 -->
<g id="node3" class="node">
<title>v4</title>
<ellipse fill="#eef2ff" stroke="black" cx="349.49" cy="-2066.91" rx="48.58" ry="48.58"/>
<text text-anchor="middle" x="349.49" y="-2075.41" font-family="Arial" font-size="10.00">v4</text>
<text text-anchor="middle" x="349.49" y="-2064.41" font-family="Arial" font-size="10.00">P1</text>
<text text-anchor="middle" x="349.49" y="-2053.41" font-family="Arial" font-size="10.00">(19, 19, &#45;12)</text>
</g>
<!-- v3&#45;&gt;v4 -->
<g id="edge2" class="edge">
<title>v3&#45;&gt;v4</title>
<path fill="none" stroke="black" d="M215.61,-1954.94C241.52,-1976.77 276.33,-2006.11 303.83,-2029.28"/>
<polygon fill="black" stroke="black" points="301.84,-2032.18 311.74,-2035.94 306.35,-2026.82 301.84,-2032.18"/>
<text text-anchor="middle" x="262.58" y="-1997.71" font-family="Arial" font-size="9.00">a</text>
</g>
<!-- v15 -->
<g id="node4" class="node">
<title>v15</title>
<ellipse fill="#eef2ff" stroke="black" cx="349.49" cy="-1923.91" rx="50.82" ry="50.82"/>
<text text-anchor="middle" x="349.49" y="-1932.41" font-family="Arial" font-size="10.00">v15</text>
<text text-anchor="middle" x="349.49" y="-1921.41" font-family="Arial" font-size="10.00">P1</text>
<text text-anchor="middle" x="349.49" y="-1910.41" font-family="Arial" font-size="10.00">(&#45;32, 10, &#45;16)</text>
</g>
<!-- v3&#45;&gt;v15 -->
<g id="edge3" class="edge">
<title>v3&#45;&gt;v15</title>
<path fill="none" stroke="black" d="M226.97,-1923.91C246.08,-1923.91 268.27,-1923.91 288.41,-1923.91"/>
<polygon fill="black" stroke="black" points="288.42,-1927.41 298.42,-1923.91 288.42,-1920.41 288.42,-1927.41"/>
<text text-anchor="middle" x="262.58" y="-1926.71" font-family="Arial" font-size="9.00">b</text>
</g>
<!-- v27 -->
<g id="node6" class="node">
<title>v27</title>
<ellipse fill="#eef2ff" stroke="black" cx="349.49" cy="-1784.91" rx="45.01" ry="45.01"/>
<text text-anchor="middle" x="349.49" y="-1793.41" font-family="Arial" font-size="10.00">v27</text>
<text text-anchor="middle" x="349.49" y="-1782.41" font-family="Arial" font-size="10.00">P1</text>
<text text-anchor="middle" x="349.49" y="-1771.41" font-family="Arial" font-size="10.00">(16, 0, &#45;10)</text>
</g>
<!-- v26&#45;&gt;v27 -->
<g id="edge5" class="edge">
<title>v26&#45;&gt;v27</title>
<path fill="none" stroke="black" d="M213.95,-1678.68C240.46,-1699.61 276.96,-1728.43 305.25,-1750.77"/>
<polygon fill="black" stroke="black" points="303.36,-1753.73 313.38,-1757.18 307.7,-1748.24 303.36,-1753.73"/>
<text text-anchor="middle" x="262.58" y="-1720.71" font-family="Arial" font-size="9.00">a</text>
</g>
<!-- v38 -->
<g id="node7" class="node">
<title>v38</title>
<ellipse fill="#eef2ff" stroke="black" cx="349.49" cy="-1650.91" rx="45.01" ry="45.01"/>
<text text-anchor="middle" x="349.49" y="-1659.41" font-family="Arial" font-size="10.00">v38</text>
<text text-anchor="middle" x="349.49" y="-1648.41" font-family="Arial" font-size="10.00">P1</text>
<text text-anchor="middle" x="349.49" y="-1637.41" font-family="Arial" font-size="10.00">(15, 19, &#45;5)</text>
</g>
<!-- v26&#45;&gt;v38 -->
<g id="edge6" class="edge">
<title>v26&#45;&gt;v38</title>
<path fill="none" stroke="black" d="M223.38,-1650.91C245.01,-1650.91 271.18,-1650.91 293.99,-1650.91"/>
<polygon fill="black" stroke="black" points="294.2,-1654.41 304.2,-1650.91 294.2,-1647.41 294.2,-1654.41"/>
<text text-anchor="middle" x="262.58" y="-1653.71" font-family="Arial" font-size="9.00">b</text>
</g>
<!-- v50 -->
<g id="node9" class="node">
<title>v50</title>
<ellipse fill="#eef2ff" stroke="black" cx="349.49" cy="-1516.91" rx="45.01" ry="45.01"/>
<text text-anchor="middle" x="349.49" y="-1525.41" font-family="Arial" font-size="10.00">v50</text>
<text text-anchor="middle" x="349.49" y="-1514.41" font-family="Arial" font-size="10.00">P1</text>
<text text-anchor="middle" x="349.49" y="-1503.41" font-family="Arial" font-size="10.00">(7, 14, &#45;28)</text>
</g>
<!-- v49&#45;&gt;v50 -->
<g id="edge8" class="edge">
<title>v49&#45;&gt;v50</title>
<path fill="none" stroke="black" d="M213.95,-1410.68C240.46,-1431.61 276.96,-1460.43 305.25,-1482.77"/>
<polygon fill="black" stroke="black" points="303.36,-1485.73 313.38,-1489.18 307.7,-1480.24 303.36,-1485.73"/>
<text text-anchor="middle" x="262.58" y="-1452.71" font-family="Arial" font-size="9.00">a</text>
</g>
<!-- v61 -->
<g id="node10" class="node">
<title>v61</title>
<ellipse fill="#eef2ff" stroke="black" cx="349.49" cy="-1382.91" rx="45.01" ry="45.01"/>
<text text-anchor="middle" x="349.49" y="-1391.41" font-family="Arial" font-size="10.00">v61</text>
<text text-anchor="middle" x="349.49" y="-1380.41" font-family="Arial" font-size="10.00">P1</text>
<text text-anchor="middle" x="349.49" y="-1369.41" font-family="Arial" font-size="10.00">(15, 9, &#45;22)</text>
</g>
<!-- v49&#45;&gt;v61 -->
<g id="edge9" class="edge">
<title>v49&#45;&gt;v61</title>
<path fill="none" stroke="black" d="M223.38,-1382.91C245.01,-1382.91 271.18,-1382.91 293.99,-1382.91"/>
<polygon fill="black" stroke="black" points="294.2,-1386.41 304.2,-1382.91 294.2,-1379.41 294.2,-1386.41"/>
<text text-anchor="middle" x="262.58" y="-1385.71" font-family="Arial" font-size="9.00">b</text>
</g>
<!-- v73 -->
<g id="node12" class="node">
<title>v73</title>
<ellipse fill="#eef2ff" stroke="black" cx="349.49" cy="-1256.91" rx="37.45" ry="37.45"/>
<text text-anchor="middle" x="349.49" y="-1265.41" font-family="Arial" font-size="10.00">v73</text>
<text text-anchor="middle" x="349.49" y="-1254.41" font-family="Arial" font-size="10.00">P1</text>
<text text-anchor="middle" x="349.49" y="-1243.41" font-family="Arial" font-size="10.00">(&#45;5, 0, 3)</text>
</g>
<!-- v72&#45;&gt;v73 -->
<g id="edge11" class="edge">
<title>v72&#45;&gt;v73</title>
<path fill="none" stroke="black" d="M207.96,-1149.26C236.5,-1171.12 280.07,-1204.5 311.13,-1228.29"/>
<polygon fill="black" stroke="black" points="309.07,-1231.12 319.13,-1234.42 313.32,-1225.56 309.07,-1231.12"/>
<text text-anchor="middle" x="262.58" y="-1194.71" font-family="Arial" font-size="9.00">a</text>
</g>
<!-- v84 -->
<g id="node13" class="node">
<title>v84</title>
<ellipse fill="#eef2ff" stroke="black" cx="349.49" cy="-1126.91" rx="49.49" ry="49.49"/>
<text text-anchor="middle" x="349.49" y="-1135.41" font-family="Arial" font-size="10.00">v84</text>
<text text-anchor="middle" x="349.49" y="-1124.41" font-family="Arial" font-size="10.00">P1</text>
<text text-anchor="middle" x="349.49" y="-1113.41" font-family="Arial" font-size="10.00">(&#45;12, &#45;9, &#45;45)</text>
</g>
<!-- v72&#45;&gt;v84 -->
<g id="edge12" class="edge">
<title>v72&#45;&gt;v84</title>
<path fill="none" stroke="black" d="M215.61,-1126.91C237.19,-1126.91 264.95,-1126.91 289.51,-1126.91"/>
<polygon fill="black" stroke="black" points="289.82,-1130.41 299.82,-1126.91 289.82,-1123.41 289.82,-1130.41"/>
<text text-anchor="middle" x="262.58" y="-1129.71" font-family="Arial" font-size="9.00">b</text>
</g>
<!-- v97 -->
<g id="node15" class="node">
<title>v97</title>
<ellipse fill="#eef2ff" stroke="black" cx="349.49" cy="-993.91" rx="40.11" ry="40.11"/>
<text text-anchor="middle" x="349.49" y="-1002.41" font-family="Arial" font-size="10.00">v97</text>
<text text-anchor="middle" x="349.49" y="-991.41" font-family="Arial" font-size="10.00">P1</text>
<text text-anchor="middle" x="349.49" y="-980.41" font-family="Arial" font-size="10.00">2 исхода</text>
</g>
<!-- v96&#45;&gt;v97 -->
<g id="edge14" class="edge">
<title>v96&#45;&gt;v97</title>
<path fill="none" stroke="black" d="M223.38,-993.91C246.56,-993.91 274.96,-993.91 298.84,-993.91"/>
<polygon fill="black" stroke="black" points="299.12,-997.41 309.12,-993.91 299.12,-990.41 299.12,-997.41"/>
<text text-anchor="middle" x="262.58" y="-996.71" font-family="Arial" font-size="9.00">a</text>
</g>
<!-- v108 -->
<g id="node16" class="node">
<title>v108</title>
<ellipse fill="#eef2ff" stroke="black" cx="349.49" cy="-862.91" rx="47.25" ry="47.25"/>
<text text-anchor="middle" x="349.49" y="-871.41" font-family="Arial" font-size="10.00">v108</text>
<text text-anchor="middle" x="349.49" y="-860.41" font-family="Arial" font-size="10.00">P1</text>
<text text-anchor="middle" x="349.49" y="-849.41" font-family="Arial" font-size="10.00">(&#45;2, 17, &#45;22)</text>
</g>
<!-- v96&#45;&gt;v108 -->
<g id="edge15" class="edge">
<title>v96&#45;&gt;v108</title>
<path fill="none" stroke="black" d="M214.37,-966.45C240.28,-946.44 275.59,-919.19 303.47,-897.66"/>
<polygon fill="black" stroke="black" points="305.72,-900.35 311.5,-891.47 301.44,-894.81 305.72,-900.35"/>
<text text-anchor="middle" x="262.58" y="-930.71" font-family="Arial" font-size="9.00">b</text>
</g>
<!-- v120 -->
<g id="node18" class="node">
<title>v120</title>
<ellipse fill="#eef2ff" stroke="black" cx="349.49" cy="-722.91" rx="49.49" ry="49.49"/>
<text text-anchor="middle" x="349.49" y="-731.41" font-family="Arial" font-size="10.00">v120</text>
<text text-anchor="middle" x="349.49" y="-720.41" font-family="Arial" font-size="10.00">P1</text>
<text text-anchor="middle" x="349.49" y="-709.41" font-family="Arial" font-size="10.00">(&#45;2, &#45;10, &#45;33)</text>
</g>
<!-- v119&#45;&gt;v120 -->
<g id="edge17" class="edge">
<title>v119&#45;&gt;v120</title>
<path fill="none" stroke="black" d="M221.18,-722.91C241.86,-722.91 267.09,-722.91 289.61,-722.91"/>
<polygon fill="black" stroke="black" points="289.74,-726.41 299.74,-722.91 289.74,-719.41 289.74,-726.41"/>
<text text-anchor="middle" x="262.58" y="-725.71" font-family="Arial" font-size="9.00">a</text>
</g>
<!-- v131 -->
<g id="node19" class="node">
<title>v131</title>
<ellipse fill="#eef2ff" stroke="black" cx="349.49" cy="-586.91" rx="43.27" ry="43.27"/>
<text text-anchor="middle" x="349.49" y="-595.41" font-family="Arial" font-size="10.00">v131</text>
<text text-anchor="middle" x="349.49" y="-584.41" font-family="Arial" font-size="10.00">P1</text>
<text text-anchor="middle" x="349.49" y="-573.41" font-family="Arial" font-size="10.00">(14, 2, 12)</text>
</g>
<!-- v119&#45;&gt;v131 -->
<g id="edge18" class="edge">
<title>v119&#45;&gt;v131</title>
<path fill="none" stroke="black" d="M211.91,-696.37C239.16,-674.53 277.91,-643.48 307.18,-620.02"/>
<polygon fill="black" stroke="black" points="309.55,-622.61 315.16,-613.62 305.17,-617.14 309.55,-622.61"/>
<text text-anchor="middle" x="262.58" y="-657.71" font-family="Arial" font-size="9.00">b</text>
</g>
<!-- v143 -->
<g id="node21" class="node">
<title>v143</title>
<ellipse fill="#eef2ff" stroke="black" cx="349.49" cy="-455.91" rx="45.01" ry="45.01"/>
<text text-anchor="middle" x="349.49" y="-464.41" font-family="Arial" font-size="10.00">v143</text>
<text text-anchor="middle" x="349.49" y="-453.41" font-family="Arial" font-size="10.00">P1</text>
<text text-anchor="middle" x="349.49" y="-442.41" font-family="Arial" font-size="10.00">(2, 20, &#45;22)</text>
</g>
<!-- v142&#45;&gt;v143 -->
<g id="edge20" class="edge">
<title>v142&#45;&gt;v143</title>
<path fill="none" stroke="black" d="M221.18,-455.91C243.15,-455.91 270.25,-455.91 293.79,-455.91"/>
<polygon fill="black" stroke="black" points="293.98,-459.41 303.98,-455.91 293.98,-452.41 293.98,-459.41"/>
<text text-anchor="middle" x="262.58" y="-458.71" font-family="Arial" font-size="9.00">a</text>
</g>
<!-- v154 -->
<g id="node22" class="node">
<title>v154</title>
<ellipse fill="#eef2ff" stroke="black" cx="349.49" cy="-324.91" rx="43.27" ry="43.27"/>
<text text-anchor="middle" x="349.49" y="-333.41" font-family="Arial" font-size="10.00">v154</text>
<text text-anchor="middle" x="349.49" y="-322.41" font-family="Arial" font-size="10.00">P1</text>
<text text-anchor="middle" x="349.49" y="-311.41" font-family="Arial" font-size="10.00">(3, 14, 16)</text>
</g>
<!-- v142&#45;&gt;v154 -->
<g id="edge21" class="edge">
<title>v142&#45;&gt;v154</title>
<path fill="none" stroke="black" d="M212.32,-430.03C239.42,-409.11 277.72,-379.54 306.8,-357.09"/>
<polygon fill="black" stroke="black" points="308.97,-359.84 314.74,-350.96 304.69,-354.3 308.97,-359.84"/>
<text text-anchor="middle" x="262.58" y="-392.71" font-family="Arial" font-size="9.00">b</text>
</g>
<!-- v166 -->
<g id="node24" class="node">
<title>v166</title>
<ellipse fill="#eef2ff" stroke="black" cx="349.49" cy="-191.91" rx="46.84" ry="46.84"/>
<text text-anchor="middle" x="349.49" y="-200.41" font-family="Arial" font-size="10.00">v166</text>
<text text-anchor="middle" x="349.49" y="-189.41" font-family="Arial" font-size="10.00">P1</text>
<text text-anchor="middle" x="349.49" y="-178.41" font-family="Arial" font-size="10.00">(19, 18, 13)</text>
</g>
<!-- v165&#45;&gt;v166 -->
<g id="edge23" class="edge">
<title>v165&#45;&gt;v166</title>
<path fill="none" stroke="black" d="M224.71,-191.91C245.56,-191.91 270.41,-191.91 292.35,-191.91"/>
<polygon fill="black" stroke="black" points="292.53,-195.41 302.53,-191.91 292.53,-188.41 292.53,-195.41"/>
<text text-anchor="middle" x="262.58" y="-194.71" font-family="Arial" font-size="9.00">a</text>
</g>
<!-- v177 -->
<g id="node25" class="node">
<title>v177</title>
<ellipse fill="#eef2ff" stroke="black" cx="349.49" cy="-50.91" rx="50.82" ry="50.82"/>
<text text-anchor="middle" x="349.49" y="-59.41" font-family="Arial" font-size="10.00">v177</text>
<text text-anchor="middle" x="349.49" y="-48.41" font-family="Arial" font-size="10.00">P1</text>
<text text-anchor="middle" x="349.49" y="-37.41" font-family="Arial" font-size="10.00">(15, &#45;16, &#45;50)</text>
</g>
<!-- v165&#45;&gt;v177 -->
<g id="edge24" class="edge">
<title>v165&#45;&gt;v177</title>
<path fill="none" stroke="black" d="M214.37,-162.35C239.75,-141.26 274.15,-112.68 301.75,-89.75"/>
<polygon fill="black" stroke="black" points="304.26,-92.22 309.71,-83.13 299.78,-86.83 304.26,-92.22"/>
<text text-anchor="middle" x="262.58" y="-123.71" font-family="Arial" font-size="9.00">b</text>
</g>
</g>
</svg>
